{"title":"Az Prijde Kocour - 1963 - Vojetech Jasný","uid":8705546,"size":1638358364,"categoryP":"video","categoryS":"movies","magnet":"?xt=urn:btih:f2fd323358519ff5b89ea9ee332000acf9fe3fff&amp;dn=Az+Prijde+Kocour+-+1963+-+Vojetech+Jasn%26yacute%3B&amp;tr=udp%3A%2F%2Ftracker.openbittorrent.com%3A80&amp;tr=udp%3A%2F%2Fopen.demonii.com%3A1337&amp;tr=udp%3A%2F%2Ftracker.coppersurfer.tk%3A6969&amp;tr=udp%3A%2F%2Fexodus.desync.com%3A6969","seeders":7,"leechers":1,"uploader":"cavallone","files":3,"time":1374142258,"description":"Plot: \n\nSome people with a strange cat arrive in a small village. The cat wears glasses, and when someone takes them off, she can colour people, according to their nature and mood. The grown-ups of the village consider the cat to be dangerous, but the kids just love her... \n\n\nRip Specs:\n\n\nFormat                                   : Matroska\nFormat version                           : Version 2\nFile size                                : 1.53 GiB\nDuration                                 : 1h 39mn\nOverall bit rate                         : 2 196 Kbps\nWriting application                      : HandBrake 0.9.9\nWriting library                          : libmkv 0.6.5\n\nVideo\nID                                       : 1\nFormat                                   : AVC\nFormat/Info                              : Advanced Video Codec\nFormat profile                           : &lt;a class=&quot;__cf_email__&quot; href=&quot;/cdn-cgi/l/email-protection&quot; data-cfemail=&quot;eaa2838d82aaa6d9c4da&quot;&gt;[email&amp;#160;protected]&lt;/a&gt;&lt;script cf-hash='f9e31' type=&quot;text/javascript&quot;&gt;\n/* &lt;![CDATA[ */!function(){try{var t=&quot;currentScript&quot;in document?document.currentScript:function(){for(var t=document.getElementsByTagName(&quot;script&quot;),e=t.length;e--;)if(t[e].getAttribute(&quot;cf-hash&quot;))return t[e]}();if(t&amp;&amp;t.previousSibling){var e,r,n,i,c=t.previousSibling,a=c.getAttribute(&quot;data-cfemail&quot;);if(a){for(e=&quot;&quot;,r=parseInt(a.substr(0,2),16),n=2;a.length-n;n+=2)i=parseInt(a.substr(n,2),16)^r,e+=String.fromCharCode(i);e=document.createTextNode(e),c.parentNode.replaceChild(e,c)}}}catch(u){}}();/* ]]&gt; */&lt;/script&gt;\nFormat settings, CABAC                   : Yes\nFormat settings, ReFrames                : 4 frames\nCodec ID                                 : V_MPEG4/ISO/AVC\nDuration                                 : 1h 39mn\nBit rate                                 : 1 996 Kbps\nWidth                                    : 712 pixels\nHeight                                   : 434 pixels\nDisplay aspect ratio                     : 2.35:1\nOriginal display aspect ratio            : 2.35:1\nFrame rate mode                          : Constant\nFrame rate                               : 25.000 fps\nColor space                              : YUV\nChroma subsampling                       : 4:2:0\nBit depth                                : 8 bits\nScan type                                : Progressive\nBits/(Pixel*Frame)                       : 0.258\nStream size                              : 1.36 GiB (89%)\nWriting library                          : x264 core 130 r2273 b3065e6\nEncoding settings                        : cabac=1 / ref=3 / deblock=1:-2:-2 / analyse=0x3:0x113 / me=hex / subme=7 / psy=1 / psy_rd=1.00:0.00 / mixed_ref=1 / me_range=16 / chroma_me=1 / trellis=2 / 8x8dct=1 / cqm=0 / deadzone=21,11 / fast_pskip=0 / chroma_qp_offset=-2 / threads=1 / lookahead_threads=1 / sliced_threads=0 / nr=0 / decimate=1 / interlaced=0 / bluray_compat=0 / constrained_intra=0 / bframes=3 / b_pyramid=2 / b_adapt=2 / b_bias=0 / direct=3 / weightb=1 / open_gop=0 / weightp=2 / keyint=250 / keyint_min=25 / scenecut=40 / intra_refresh=0 / rc_lookahead=60 / rc=2pass / mbtree=1 / bitrate=1996 / ratetol=1.0 / qcomp=0.60 / qpmin=0 / qpmax=69 / qpstep=4 / cplxblur=20.0 / qblur=0.5 / ip_ratio=1.40 / aq=1:1.00\nLanguage                                 : English\nDefault                                  : Yes\nForced                                   : No\nColor primaries                          : BT.601 PAL\nTransfer characteristics                 : BT.709\nMatrix coefficients                      : BT.601\n\nAudio\nID                                       : 2\nFormat                                   : AC-3\nFormat/Info                              : Audio Coding 3\nMode extension                           : CM (complete main)\nFormat settings, Endianness              : Big\nCodec ID                                 : A_AC3\nDuration                                 : 1h 39mn\nBit rate mode                            : Constant\nBit rate                                 : 192 Kbps\nChannel(s)                               : 2 channels\nChannel positions                        : Front: L R\nSampling rate                            : 48.0 KHz\nBit depth                                : 16 bits\nCompression mode                         : Lossy\nStream size                              : 137 MiB (9%)\nLanguage                                 : Czech\nDefault                                  : Yes\nForced                                   : No\n\nText\nID                                       : 3\nFormat                                   : VobSub\nCodec ID                                 : S_VOBSUB\nCodec ID/Info                            : The same subtitle format used on DVDs\nLanguage                                 : English\nDefault                                  : Yes\nForced                                   : No\n\nMenu\n00:00:00.000                             : Chapter 1\n00:07:12.400                             : Chapter 2\n00:10:24.480                             : Chapter 3\n00:17:17.040                             : Chapter 4\n00:23:48.720                             : Chapter 5\n00:31:40.800                             : Chapter 6\n00:38:04.560                             : Chapter 7\n00:42:25.920                             : Chapter 8\n00:48:37.680                             : Chapter 9\n00:53:10.400                             : Chapter 10\n01:01:25.240                             : Chapter 11\n01:09:15.440                             : Chapter 12\n01:16:13.240                             : Chapter 13\n01:22:32.080                             : Chapter 14\n01:26:30.800                             : Chapter 15\n01:33:56.520                             : Chapter 16\n\n\n\nSubs: English and Spanish. Language: Czech.\n\n\nMy rip. Enjoy!\n\n","torrent":{"xt":"urn:btih:f2fd323358519ff5b89ea9ee332000acf9fe3fff","amp;dn":"Az+Prijde+Kocour+-+1963+-+Vojetech+Jasn%26yacute%3B","amp;tr":["udp%3A%2F%2Ftracker.openbittorrent.com%3A80","udp%3A%2F%2Fopen.demonii.com%3A1337","udp%3A%2F%2Ftracker.coppersurfer.tk%3A6969","udp%3A%2F%2Fexodus.desync.com%3A6969"],"infoHash":"f2fd323358519ff5b89ea9ee332000acf9fe3fff","infoHashBuffer":{"type":"Buffer","data":[242,253,50,51,88,81,159,245,184,158,169,238,51,32,0,172,249,254,63,255]},"announce":[],"urlList":[]}}